<svg width="24" height="24" viewBox="0 0 24 24" fill="none" xmlns="http://www.w3.org/2000/svg">
<g id="flat-color-icons:manager">
<path id="Vector" d="M12 18.5L9.5 15.5V12.5H14.5V15.5L12 18.5Z" fill="#E1AE3C"/>
<g id="Group">
<path id="Vector_2" d="M16.5 10.5C17.0523 10.5 17.5 10.0523 17.5 9.5C17.5 8.94772 17.0523 8.5 16.5 8.5C15.9477 8.5 15.5 8.94772 15.5 9.5C15.5 10.0523 15.9477 10.5 16.5 10.5Z" fill="#E1AE3C"/>
<path id="Vector_3" d="M7.5 10.5C8.05228 10.5 8.5 10.0523 8.5 9.5C8.5 8.94772 8.05228 8.5 7.5 8.5C6.94772 8.5 6.5 8.94772 6.5 9.5C6.5 10.0523 6.94772 10.5 7.5 10.5Z" fill="#E1AE3C"/>
</g>
<path id="Vector_4" d="M16.5 6.49999C16.5 2.69999 7.5 3.99999 7.5 6.49999V9.99999C7.5 12.5 9.5 14.5 12 14.5C14.5 14.5 16.5 12.5 16.5 9.99999V6.49999Z" fill="#E1AE3C"/>
<path id="Vector_5" d="M12 2C8.95 2 7 4.45 7 7.5V8.65L8 9.5V7L14 5L16 7V9.5L17 8.65V7.5C17 5.5 16.5 3.5 14 3L13.5 2H12Z" fill="#E1AE3C"/>
<g id="Group_2">
<path id="Vector_6" d="M14 10C14.2761 10 14.5 9.77614 14.5 9.5C14.5 9.22386 14.2761 9 14 9C13.7239 9 13.5 9.22386 13.5 9.5C13.5 9.77614 13.7239 10 14 10Z" fill="#E1AE3C"/>
<path id="Vector_7" d="M10 10C10.2761 10 10.5 9.77614 10.5 9.5C10.5 9.22386 10.2761 9 10 9C9.72386 9 9.5 9.22386 9.5 9.5C9.5 9.77614 9.72386 10 10 10Z" fill="#E1AE3C"/>
</g>
<path id="Vector_8" d="M14.5 15.5L12 16L9.5 15.5C9.5 15.5 4 16.5 4 22H20C20 16.5 14.5 15.5 14.5 15.5Z" fill="#E1AE3C"/>
<path id="Vector_9" d="M11.5 17.5L11 22H13L12.5 17.5L13 17L12 16L11 17L11.5 17.5Z" fill="#CFD8DC"/>
</g>
</svg>
