<svg width="20" height="20" viewBox="0 0 20 20" fill="none" xmlns="http://www.w3.org/2000/svg">
<g id="vuesax/bold/user-tick">
<g id="user-tick">
<path id="Vector" d="M10 11.6667C5.82505 11.6667 2.42505 14.4667 2.42505 17.9167C2.42505 18.15 2.60838 18.3334 2.84172 18.3334H17.1584C17.3917 18.3334 17.575 18.15 17.575 17.9167C17.575 14.4667 14.175 11.6667 10 11.6667Z" fill="#8D79F6"/>
<path id="Vector_2" d="M9.99992 1.66669C9.01659 1.66669 8.11659 2.00835 7.39992 2.58335C6.44159 3.34169 5.83325 4.51669 5.83325 5.83335C5.83325 6.61669 6.04992 7.35002 6.44159 7.97502C7.15825 9.18335 8.47492 10 9.99992 10C11.0499 10 12.0083 9.61669 12.7416 8.95835C13.0666 8.68335 13.3499 8.35002 13.5666 7.97502C13.9499 7.35002 14.1666 6.61669 14.1666 5.83335C14.1666 3.53335 12.2999 1.66669 9.99992 1.66669ZM12.1583 5.38335L9.93325 7.43335C9.78325 7.57502 9.59159 7.64169 9.39992 7.64169C9.19992 7.64169 8.99992 7.56669 8.84992 7.41669L7.82492 6.38335C7.51659 6.07502 7.51659 5.58335 7.82492 5.27502C8.13325 4.96669 8.62492 4.96669 8.93325 5.27502L9.42492 5.76669L11.0999 4.22502C11.4166 3.93335 11.9083 3.95002 12.1999 4.26669C12.4916 4.59169 12.4749 5.09169 12.1583 5.38335Z" fill="#8D79F6"/>
</g>
</g>
</svg>
