<svg width="100" height="116" viewBox="0 0 100 116" fill="none" xmlns="http://www.w3.org/2000/svg">
<g id="Invoice">
<path id="Vector" d="M84.8375 115.336H10.9773C10.2513 115.343 9.53158 115.216 8.86469 114.961C8.19781 114.707 7.59865 114.331 7.10602 113.858C6.61339 113.385 6.23828 112.826 6.00496 112.217C5.77165 111.607 5.68535 110.961 5.75164 110.32L14.7977 5.1834C14.9386 3.82884 15.6384 2.56801 16.7629 1.6425C17.8875 0.716994 19.3578 0.191913 20.8921 0.167871H94.7522C95.4784 0.159472 96.1985 0.286534 96.8657 0.540815C97.533 0.795096 98.1324 1.17091 98.6252 1.64387C99.118 2.11682 99.4931 2.67635 99.7261 3.28613C99.9592 3.89591 100.045 4.54232 99.9779 5.1834L90.9319 110.32C90.79 111.674 90.0899 112.935 88.9656 113.86C87.8412 114.785 86.3715 115.311 84.8375 115.336Z" fill="#E1AE3C"/>
<path id="Vector_2" opacity="0.5" d="M84.8375 115.336H10.9773C10.2513 115.343 9.53158 115.216 8.86469 114.961C8.19781 114.707 7.59865 114.331 7.10602 113.858C6.61339 113.385 6.23828 112.826 6.00496 112.217C5.77165 111.607 5.68535 110.961 5.75164 110.32L14.7977 5.1834C14.9386 3.82884 15.6384 2.56801 16.7629 1.6425C17.8875 0.716994 19.3578 0.191913 20.8921 0.167871H94.7522C95.4784 0.159472 96.1985 0.286534 96.8657 0.540815C97.533 0.795096 98.1324 1.17091 98.6252 1.64387C99.118 2.11682 99.4931 2.67635 99.7261 3.28613C99.9592 3.89591 100.045 4.54232 99.9779 5.1834L90.9319 110.32C90.79 111.674 90.0899 112.935 88.9656 113.86C87.8412 114.785 86.3715 115.311 84.8375 115.336Z" fill="white"/>
<path id="Vector_3" d="M83.7415 115.336H9.87674C9.15074 115.343 8.431 115.216 7.76411 114.961C7.09722 114.707 6.49806 114.331 6.00543 113.858C5.51281 113.385 5.13769 112.826 4.90438 112.217C4.67107 111.607 4.58476 110.961 4.65105 110.32L13.7016 5.1834C13.8426 3.82816 14.5431 2.56677 15.6686 1.64117C16.7941 0.715574 18.2655 0.19093 19.8006 0.167871H93.6607C94.3869 0.159472 95.107 0.286534 95.7743 0.540815C96.4415 0.795096 97.0409 1.17091 97.5337 1.64387C98.0265 2.11682 98.4016 2.67635 98.6346 3.28613C98.8676 3.89591 98.9535 4.54232 98.8864 5.1834L89.8404 110.32C89.6994 111.675 88.999 112.937 87.8734 113.862C86.7479 114.788 85.2765 115.312 83.7415 115.336Z" fill="#E1AE3C"/>
<path id="Vector_4" opacity="0.7" d="M83.7415 115.336H9.87674C9.15074 115.343 8.431 115.216 7.76411 114.961C7.09722 114.707 6.49806 114.331 6.00543 113.858C5.51281 113.385 5.13769 112.826 4.90438 112.217C4.67107 111.607 4.58476 110.961 4.65105 110.32L13.7016 5.1834C13.8426 3.82816 14.5431 2.56677 15.6686 1.64117C16.7941 0.715574 18.2655 0.19093 19.8006 0.167871H93.6607C94.3869 0.159472 95.107 0.286534 95.7743 0.540815C96.4415 0.795096 97.0409 1.17091 97.5337 1.64387C98.0265 2.11682 98.4016 2.67635 98.6346 3.28613C98.8676 3.89591 98.9535 4.54232 98.8864 5.1834L89.8404 110.32C89.6994 111.675 88.999 112.937 87.8734 113.862C86.7479 114.788 85.2765 115.312 83.7415 115.336Z" fill="white"/>
<path id="Vector_5" d="M10.0219 113.663C9.53767 113.669 9.05731 113.585 8.61216 113.416C8.16701 113.247 7.76705 112.996 7.43837 112.681C7.10968 112.366 6.85963 111.992 6.70452 111.586C6.54941 111.179 6.49272 110.748 6.53814 110.32L15.4659 6.57877C15.5579 5.67542 16.0237 4.83418 16.7735 4.21709C17.5234 3.59999 18.5043 3.25068 19.5273 3.23643H93.3875C93.8718 3.23 94.3522 3.31411 94.7973 3.48326C95.2425 3.65242 95.6424 3.90282 95.9711 4.21816C96.2998 4.5335 96.5498 4.9067 96.7049 5.31343C96.8601 5.72017 96.9167 6.15131 96.8713 6.57877L87.9435 110.32C87.8516 111.223 87.3865 112.064 86.6376 112.681C85.8887 113.298 84.9089 113.648 83.8867 113.663H10.0219Z" fill="#E1AE3C"/>
<path id="Vector_6" opacity="0.2" d="M83.3637 20.6859H30.5064C30.2192 20.6892 29.9345 20.639 29.6707 20.5384C29.4069 20.4379 29.1699 20.2892 28.9751 20.1021C28.7804 19.915 28.6322 19.6937 28.5403 19.4525C28.4484 19.2113 28.4147 18.9557 28.4416 18.7022C28.4984 18.1679 28.7751 17.6709 29.2188 17.3058C29.6625 16.9407 30.2422 16.7331 30.8475 16.7226H83.7048C83.9918 16.7187 84.2764 16.7684 84.5402 16.8685C84.804 16.9686 85.0411 17.1169 85.2359 17.3037C85.4307 17.4905 85.5789 17.7116 85.6709 17.9525C85.7629 18.1935 85.7965 18.449 85.7696 18.7022C85.7158 19.2379 85.4402 19.737 84.996 20.1032C84.5517 20.4695 83.9703 20.677 83.3637 20.6859Z" fill="black"/>
<path id="Vector_7" opacity="0.3" d="M60.8147 2.21129H52.278C52.2074 2.21211 52.1373 2.19976 52.0723 2.17504C52.0073 2.15033 51.949 2.11379 51.9009 2.0678C51.8529 2.02181 51.8163 1.9674 51.7935 1.90808C51.7708 1.84876 51.7623 1.78586 51.7687 1.72345C51.783 1.59217 51.8511 1.47009 51.96 1.38022C52.0689 1.29036 52.2112 1.23892 52.3599 1.2356H60.9011C60.9714 1.23535 61.041 1.24811 61.1054 1.27308C61.1698 1.29805 61.2277 1.33467 61.2752 1.3806C61.3227 1.42652 61.3589 1.48074 61.3814 1.53978C61.4039 1.59882 61.4123 1.66138 61.406 1.72345C61.3935 1.85539 61.326 1.97849 61.2167 2.06869C61.1074 2.1589 60.9641 2.20975 60.8147 2.21129Z" fill="#E1AE3C"/>
<path id="Vector_8" d="M30.2612 18.7021C30.3368 18.0009 30.2446 17.2934 29.9907 16.6259C29.7369 15.9584 29.327 15.3459 28.7878 14.8284C28.2487 14.3109 27.5925 13.9 26.862 13.6227C26.1316 13.3454 25.3434 13.2078 24.5488 13.2189H78.2157C79.0102 13.2078 79.7985 13.3454 80.5289 13.6227C81.2594 13.9 81.9156 14.3109 82.4547 14.8284C82.9938 15.3459 83.4037 15.9584 83.6576 16.6259C83.9115 17.2934 84.0036 18.0009 83.928 18.7021H30.2612Z" fill="#F0F0F0"/>
<path id="Vector_9" d="M24.5625 13.2183C22.884 13.2412 21.2745 13.8141 20.0442 14.8265C18.8139 15.839 18.05 17.2193 17.8996 18.7015L12.401 82.593C12.2517 84.0748 11.4887 85.4551 10.2592 86.4677C9.02963 87.4802 7.42068 88.0533 5.74268 88.0763H59.4096C61.088 88.0534 62.6976 87.4805 63.9278 86.468C65.1581 85.4555 65.9221 84.0752 66.0724 82.593L71.571 18.7015C71.7203 17.2197 72.4833 15.8394 73.7129 14.8268C74.9424 13.8143 76.5513 13.2413 78.2293 13.2183H24.5625Z" fill="white"/>
<path id="Vector_10" d="M53.6925 82.594C53.6169 83.2952 53.7091 84.0027 53.9629 84.6702C54.2168 85.3377 54.6267 85.9502 55.1658 86.4677C55.7049 86.9852 56.3612 87.3961 57.0916 87.6734C57.8221 87.9507 58.6103 88.0883 59.4048 88.0772H5.73796C4.94343 88.0883 4.15519 87.9507 3.42474 87.6734C2.69429 87.3961 2.03807 86.9852 1.49894 86.4677C0.959822 85.9502 0.549926 85.3377 0.296049 84.6702C0.0421716 84.0027 -0.049975 83.2952 0.0256203 82.594H53.6925Z" fill="#F0F0F0"/>
<path id="Vector_11" d="M22.2792 81.3319C22.4839 78.9975 21.6561 77.1106 19.0273 77.1106H60.3508C62.9796 77.1106 64.958 79.2434 63.6072 81.3319H22.2792Z" fill="#E0E0E0"/>
<path id="Vector_12" d="M53.6923 82.5932C53.8384 81.1092 54.6 79.726 55.8298 78.711C57.0597 77.6959 58.6704 77.1212 60.3506 77.0979H6.68372C5.00572 77.1209 3.39677 77.6939 2.16723 78.7065C0.937693 79.719 0.174688 81.0993 0.0253906 82.5811L53.6923 82.5932Z" fill="#F0F0F0"/>
<path id="Vector_13" d="M79.0659 98.4342H17.4627C17.2542 98.4367 17.0475 98.4002 16.8559 98.3273C16.6643 98.2544 16.4922 98.1465 16.3507 98.0108C16.2091 97.8751 16.1014 97.7145 16.0344 97.5395C15.9674 97.3644 15.9427 97.1789 15.9619 96.9948C16.0021 96.6064 16.2025 96.2448 16.5247 95.9792C16.847 95.7137 17.2684 95.5628 17.7083 95.5555H79.3161C79.5241 95.5536 79.7304 95.5904 79.9214 95.6636C80.1124 95.7368 80.284 95.8447 80.4251 95.9804C80.5661 96.116 80.6734 96.2764 80.7401 96.4512C80.8069 96.6259 80.8315 96.8111 80.8124 96.9948C80.7721 97.3832 80.5717 97.7448 80.2495 98.0104C79.9272 98.276 79.5058 98.4269 79.0659 98.4342Z" fill="white"/>
<path id="Vector_14" d="M47.9574 105.352H16.867C16.6583 105.355 16.4512 105.319 16.2593 105.247C16.0674 105.174 15.8949 105.066 15.7533 104.93C15.6116 104.794 15.5039 104.633 15.4372 104.458C15.3704 104.283 15.3462 104.097 15.3661 103.913C15.4063 103.524 15.6068 103.163 15.929 102.897C16.2512 102.632 16.6727 102.481 17.1126 102.474H48.203C48.4114 102.471 48.6182 102.507 48.8098 102.58C49.0013 102.653 49.1735 102.761 49.315 102.897C49.4565 103.033 49.5643 103.193 49.6313 103.368C49.6982 103.543 49.723 103.729 49.7038 103.913C49.6636 104.301 49.4632 104.663 49.1409 104.928C48.8187 105.194 48.3973 105.345 47.9574 105.352Z" fill="white"/>
<path id="Vector_15" d="M69.4834 105.352H56.8899C56.6812 105.355 56.4742 105.319 56.2823 105.247C56.0903 105.174 55.9179 105.066 55.7762 104.93C55.6345 104.794 55.5268 104.633 55.4601 104.458C55.3934 104.283 55.3692 104.097 55.3891 103.913C55.4293 103.524 55.6297 103.163 55.9519 102.897C56.2742 102.632 56.6956 102.481 57.1355 102.473H69.729C69.9373 102.472 70.1437 102.508 70.335 102.582C70.5262 102.655 70.698 102.763 70.8394 102.898C70.9808 103.034 71.0886 103.194 71.1558 103.369C71.2231 103.544 71.2483 103.729 71.2299 103.913C71.1897 104.301 70.9892 104.663 70.667 104.928C70.3448 105.194 69.9233 105.345 69.4834 105.352Z" fill="white"/>
<path id="Vector_16" d="M82.077 77.9766L78.8615 78.4241C78.7831 78.16 78.6588 77.9084 78.4931 77.6782C78.3289 77.5028 78.1262 77.3588 77.8973 77.2549L77.7063 79.4442C79.4042 79.8554 80.523 80.2882 81.0627 80.7424C81.4134 81.0377 81.6818 81.4012 81.8468 81.8042C82.0117 82.2073 82.0687 82.6388 82.0133 83.0647C81.9731 83.6018 81.7858 84.1222 81.4675 84.5806C81.1682 85.0252 80.7761 85.4151 80.3123 85.7297C79.884 86.026 79.4008 86.2538 78.8842 86.403C78.2922 86.5536 77.6808 86.6362 77.065 86.6489L76.9422 88.0762H75.7415L75.8643 86.6489C75.1807 86.6093 74.5061 86.4886 73.8586 86.2901C73.3736 86.1297 72.9308 85.8827 72.5579 85.5644C72.2247 85.2813 71.9574 84.9429 71.7711 84.5685C71.5792 84.1573 71.461 83.722 71.4209 83.2784L74.9001 82.9236C74.9198 83.3008 75.0283 83.6702 75.2185 84.0081C75.4214 84.2672 75.7018 84.471 76.0281 84.5968L76.2555 81.9237C75.4395 81.7381 74.6423 81.4927 73.8723 81.1899C73.3871 80.9606 72.9839 80.6157 72.708 80.1941C72.3824 79.6868 72.2485 79.1005 72.326 78.5209C72.3565 78.0908 72.4832 77.6705 72.6987 77.2842C72.9142 76.898 73.2142 76.5536 73.5812 76.2712C74.5004 75.6141 75.6478 75.2594 76.8285 75.2672L76.8922 74.5173H78.1383L78.0747 75.2672C79.0983 75.2656 80.0968 75.5476 80.9309 76.0736C81.5708 76.5565 81.9804 77.2365 82.077 77.9766ZM76.6511 77.2186C76.3522 77.2895 76.0794 77.4285 75.8598 77.6218C75.7031 77.7753 75.6101 77.9715 75.596 78.1782C75.572 78.3833 75.6317 78.5893 75.7643 78.7588C75.9534 78.9534 76.2035 79.0937 76.4829 79.1619L76.6511 77.2186ZM77.256 84.6734C77.6684 84.6123 78.0521 84.4471 78.3612 84.1976C78.5906 84.0025 78.7327 83.7405 78.7614 83.4598C78.7844 83.2229 78.7029 82.9874 78.534 82.8026C78.2414 82.5345 77.8719 82.3421 77.4652 82.2462L77.256 84.6734Z" fill="white"/>
<path id="Vector_17" d="M21.4921 31.0024H23.0248L22.6473 35.381H21.1191L21.4921 31.0024Z" fill="#E1AE3C"/>
<path id="Vector_18" d="M24.1304 31.0024H25.5539L27.2049 33.4215L27.4141 31.0024H28.8513L28.4738 35.381H27.0366L25.3948 32.9619L25.1856 35.381H23.7529L24.1304 31.0024Z" fill="#E1AE3C"/>
<path id="Vector_19" d="M29.3789 31.0024H30.9753L31.8167 34.1553L33.1811 31.0024H34.7274L32.5352 35.381H30.8843L29.3789 31.0024Z" fill="#E1AE3C"/>
<path id="Vector_20" d="M34.6135 33.1967C34.6346 32.5678 34.9277 31.9702 35.4321 31.5276C35.9636 31.1149 36.6548 30.901 37.3605 30.9309C37.698 30.9079 38.0373 30.948 38.3561 31.0487C38.675 31.1494 38.9665 31.3085 39.2116 31.5155C39.4257 31.7409 39.5831 32.0043 39.6733 32.2879C39.7635 32.5716 39.7844 32.869 39.7346 33.1604C39.7152 33.6019 39.5781 34.033 39.3344 34.4183C39.1159 34.7427 38.8013 35.0076 38.4248 35.1844C37.992 35.3765 37.5123 35.4707 37.0285 35.4585C36.559 35.4744 36.0918 35.393 35.6641 35.2207C35.3063 35.0571 35.0175 34.7955 34.8409 34.4748C34.6356 34.075 34.557 33.6331 34.6135 33.1967ZM36.1416 33.1967C36.0752 33.5257 36.1446 33.8649 36.3372 34.1522C36.4244 34.2485 36.5365 34.3248 36.6639 34.3746C36.7914 34.4244 36.9304 34.4463 37.0694 34.4385C37.2151 34.4446 37.3606 34.4225 37.4956 34.3738C37.6307 34.325 37.7522 34.2508 37.8517 34.1563C38.0925 33.8611 38.2186 33.5045 38.211 33.1403C38.2725 32.8258 38.1995 32.5024 38.0063 32.2331C37.9177 32.1375 37.8046 32.0621 37.6765 32.013C37.5483 31.9639 37.4088 31.9426 37.2696 31.9509C37.1255 31.9476 36.9822 31.9718 36.8496 32.0219C36.717 32.072 36.5981 32.1468 36.5009 32.2412C36.2653 32.5173 36.139 32.8546 36.1416 33.2007V33.1967Z" fill="#E1AE3C"/>
<path id="Vector_21" d="M40.8033 31.0024H42.3314L41.9585 35.381H40.4258L40.8033 31.0024Z" fill="#E1AE3C"/>
<path id="Vector_22" d="M46.4932 33.5915L47.7985 33.9503C47.6977 34.2539 47.5291 34.5363 47.3027 34.7809C47.0994 35.001 46.8387 35.174 46.5432 35.2849C46.1907 35.4098 45.8129 35.4688 45.4335 35.4582C44.9894 35.4727 44.547 35.4012 44.1373 35.2486C43.7818 35.0911 43.4943 34.8348 43.3186 34.5188C43.0862 34.1063 42.9975 33.6417 43.0639 33.1843C43.0769 32.5566 43.3619 31.9575 43.8599 31.5111C44.3807 31.1058 45.0598 30.8974 45.7518 30.9305C46.2592 30.9008 46.7636 31.0183 47.189 31.2652C47.5516 31.5231 47.801 31.8854 47.894 32.2892L46.5296 32.5553C46.5068 32.4533 46.4653 32.3552 46.4068 32.2651C46.3357 32.164 46.2351 32.0818 46.1157 32.0272C45.9892 31.9695 45.8486 31.9404 45.7064 31.9425C45.5444 31.938 45.3838 31.9696 45.2392 32.0344C45.0946 32.0992 44.9706 32.1952 44.8786 32.3134C44.6963 32.5708 44.5986 32.8683 44.5966 33.1722C44.5263 33.5124 44.5839 33.8636 44.7604 34.1721C44.84 34.2626 44.9434 34.3345 45.0615 34.3816C45.1795 34.4286 45.3088 34.4494 45.438 34.4422C45.5625 34.4493 45.6873 34.4337 45.8047 34.3962C45.922 34.3588 46.0294 34.3003 46.1202 34.2245C46.2998 34.0429 46.4277 33.8259 46.4932 33.5915Z" fill="#E1AE3C"/>
<path id="Vector_23" d="M48.7894 31.0024H52.8826L52.8053 31.9378H50.2448L50.1857 32.6353H52.5461L52.4688 33.5263H50.0947L50.0174 34.3891H52.6552L52.5688 35.381H48.4028L48.7894 31.0024Z" fill="#E1AE3C"/>
<path id="Vector_24" d="M64.9898 41.0334H20.6328L20.7238 39.9448H65.0854L64.9898 41.0334Z" fill="#E1AE3C"/>
<path id="Vector_25" d="M64.9899 41.0342H20.6329L20.3418 44.3765H64.7034L64.9899 41.0342Z" fill="#F0F0F0"/>
<path id="Vector_26" d="M64.4167 47.7144H20.0551L19.7686 51.0527H64.1301L64.4167 47.7144Z" fill="#F0F0F0"/>
<path id="Vector_27" d="M63.8394 54.3904H19.4823L19.1958 57.7327H63.5528L63.8394 54.3904Z" fill="#F0F0F0"/>
<path id="Vector_28" d="M63.2663 61.072H18.9047L18.6182 64.4103H62.9798L63.2663 61.072Z" fill="#F0F0F0"/>
<path id="Vector_29" d="M62.5974 68.8407H18.2358L18.3314 67.748H62.6929L62.5974 68.8407Z" fill="#E1AE3C"/>
<path id="Vector_30" d="M57.5219 20.6851H66.7408L66.3224 25.5595H57.1035L57.5219 20.6851Z" fill="#F0F0F0"/>
</g>
</svg>
