<svg width="16" height="16" viewBox="0 0 16 16" fill="none" xmlns="http://www.w3.org/2000/svg">
<g id="DotsVerticalOutline">
<path id="Vector" d="M8 3.33329V3.33996M8 7.99996V8.00663M8 12.6666V12.6733M8 3.99996C7.82319 3.99996 7.65362 3.92972 7.5286 3.8047C7.40357 3.67967 7.33334 3.5101 7.33334 3.33329C7.33334 3.15648 7.40357 2.98691 7.5286 2.86189C7.65362 2.73686 7.82319 2.66663 8 2.66663C8.17681 2.66663 8.34638 2.73686 8.47141 2.86189C8.59643 2.98691 8.66667 3.15648 8.66667 3.33329C8.66667 3.5101 8.59643 3.67967 8.47141 3.8047C8.34638 3.92972 8.17681 3.99996 8 3.99996ZM8 8.66663C7.82319 8.66663 7.65362 8.59639 7.5286 8.47136C7.40357 8.34634 7.33334 8.17677 7.33334 7.99996C7.33334 7.82315 7.40357 7.65358 7.5286 7.52855C7.65362 7.40353 7.82319 7.33329 8 7.33329C8.17681 7.33329 8.34638 7.40353 8.47141 7.52855C8.59643 7.65358 8.66667 7.82315 8.66667 7.99996C8.66667 8.17677 8.59643 8.34634 8.47141 8.47136C8.34638 8.59639 8.17681 8.66663 8 8.66663ZM8 13.3333C7.82319 13.3333 7.65362 13.2631 7.5286 13.138C7.40357 13.013 7.33334 12.8434 7.33334 12.6666C7.33334 12.4898 7.40357 12.3202 7.5286 12.1952C7.65362 12.0702 7.82319 12 8 12C8.17681 12 8.34638 12.0702 8.47141 12.1952C8.59643 12.3202 8.66667 12.4898 8.66667 12.6666C8.66667 12.8434 8.59643 13.013 8.47141 13.138C8.34638 13.2631 8.17681 13.3333 8 13.3333Z" stroke="#51526C" stroke-width="2" stroke-linecap="round" stroke-linejoin="round"/>
</g>
</svg>
