<svg width="49" height="48" viewBox="0 0 49 48" fill="none" xmlns="http://www.w3.org/2000/svg">
<g id="vuesax/bold/folder-add">
<g id="folder-add">
<path id="Vector" d="M43.2711 17.1979C43.5901 17.8124 43.1105 18.5 42.4182 18.5H5.5C4.94772 18.5 4.5 18.0523 4.5 17.5V12.84C4.5 7.96 8.46 4 13.34 4H17.98C21.24 4 22.26 5.06 23.56 6.8L26.36 10.52C26.98 11.34 27.06 11.44 28.22 11.44H33.8C37.9167 11.44 41.4936 13.7744 43.2711 17.1979Z" fill="#E1AE3C"/>
<path id="Vector_2" d="M44.4634 22.4959C44.4615 21.945 44.0143 21.4993 43.4634 21.4993L5.49998 21.5C4.9477 21.5 4.5 21.9477 4.5 22.5V33.3C4.5 39.2 9.3 44 15.2 44H33.8C39.7 44 44.5 39.2 44.5 33.3L44.4634 22.4959ZM29.5 33.5H26.12V37C26.12 37.82 25.44 38.5 24.62 38.5C23.78 38.5 23.12 37.82 23.12 37V33.5H19.5C18.68 33.5 18 32.82 18 32C18 31.18 18.68 30.5 19.5 30.5H23.12V27C23.12 26.18 23.78 25.5 24.62 25.5C25.44 25.5 26.12 26.18 26.12 27V30.5H29.5C30.32 30.5 31 31.18 31 32C31 32.82 30.32 33.5 29.5 33.5Z" fill="#E1AE3C"/>
</g>
</g>
</svg>
