<svg width="36" height="36" viewBox="0 0 36 36" fill="none" xmlns="http://www.w3.org/2000/svg">
<g id="Plus">
<path id="Vector" fill-rule="evenodd" clip-rule="evenodd" d="M18 5.40002C18.4774 5.40002 18.9352 5.58967 19.2728 5.92723C19.6104 6.2648 19.8 6.72263 19.8 7.20002V16.2H28.8C29.2774 16.2 29.7352 16.3897 30.0728 16.7272C30.4104 17.0648 30.6 17.5226 30.6 18C30.6 18.4774 30.4104 18.9353 30.0728 19.2728C29.7352 19.6104 29.2774 19.8 28.8 19.8H19.8V28.8C19.8 29.2774 19.6104 29.7353 19.2728 30.0728C18.9352 30.4104 18.4774 30.6 18 30.6C17.5226 30.6 17.0648 30.4104 16.7272 30.0728C16.3896 29.7353 16.2 29.2774 16.2 28.8V19.8H7.19999C6.7226 19.8 6.26477 19.6104 5.9272 19.2728C5.58964 18.9353 5.39999 18.4774 5.39999 18C5.39999 17.5226 5.58964 17.0648 5.9272 16.7272C6.26477 16.3897 6.7226 16.2 7.19999 16.2H16.2V7.20002C16.2 6.72263 16.3896 6.2648 16.7272 5.92723C17.0648 5.58967 17.5226 5.40002 18 5.40002Z" fill="#E1AE3C"/>
</g>
</svg>
