<svg version="1.1" id="Layer_1" xmlns="http://www.w3.org/2000/svg" xmlns:xlink="http://www.w3.org/1999/xlink" x="0px" y="0px"
	 width="100%" viewBox="0 0 512 512" enable-background="new 0 0 512 512" xml:space="preserve">
<path fill="#FFFFFF" opacity="1.000000" stroke="none" 
	d="
M513.000000,86.000000 
	C513.000000,228.211166 513.000000,370.422333 513.000000,513.000000 
	C485.646851,513.000000 458.292084,513.000000 430.610168,512.610413 
	C431.773956,512.141968 433.326263,512.305725 434.746307,511.946594 
	C448.931030,508.358856 461.317322,502.019562 471.133087,490.595367 
	C480.828888,479.310760 486.541962,466.335358 486.779877,451.907379 
	C487.422729,412.920166 487.034332,373.915344 486.965027,334.917664 
	C486.953888,328.652679 480.170074,322.157074 473.935516,322.000061 
	C466.328064,321.808472 460.014313,328.572418 460.009247,337.056885 
	C459.987579,373.554840 460.124939,410.053650 459.866669,446.549774 
	C459.827484,452.090302 458.739685,457.880005 456.869690,463.100494 
	C452.198456,476.140930 438.558594,485.923950 424.967163,485.936249 
	C303.974091,486.045807 182.980865,486.000092 61.987686,485.998535 
	C60.655312,485.998535 59.239006,486.272003 58.003151,485.920715 
	C39.217430,480.581604 27.149548,468.037415 27.106186,447.458618 
	C26.878984,339.631805 26.986868,231.804306 27.042431,123.977066 
	C27.044960,119.068695 27.377144,114.120300 28.053389,109.259781 
	C30.348520,92.763435 46.502430,79.125275 62.680660,79.052971 
	C100.011147,78.886108 137.342926,79.030144 174.674057,78.964333 
	C179.708130,78.955460 184.439072,77.840096 188.050613,73.770920 
	C191.924179,69.406540 191.959351,64.541679 189.809189,59.646931 
	C187.405502,54.175007 182.664612,52.009052 176.872894,52.006905 
	C140.208298,51.993301 103.543236,51.907814 66.879539,52.090187 
	C60.724609,52.120800 54.318787,52.460415 48.470131,54.168289 
	C27.707823,60.231113 12.620235,72.970917 4.755164,93.575600 
	C3.771454,96.152702 2.264505,98.530075 0.999998,101.000000 
	C1.000000,67.688271 1.000000,34.376537 1.000002,1.058167 
	C171.666672,1.051525 342.333344,1.051525 513.000000,1.051525 
	C513.000000,21.756262 513.000000,42.409473 512.623901,63.406548 
	C510.415833,58.283504 509.464844,52.292301 506.583221,47.449963 
	C498.579102,33.999546 487.143616,23.381590 475.040039,13.748749 
	C462.114594,3.461802 446.632904,0.914861 430.670715,3.161816 
	C417.482391,5.018306 406.494080,12.083542 397.181671,21.380423 
	C322.876190,95.561783 248.641327,169.813950 174.488205,244.147552 
	C172.082977,246.558640 170.105942,249.863876 169.094101,253.114838 
	C165.282257,265.361847 161.911880,277.747559 158.451416,290.102386 
	C151.958344,313.284424 145.161972,336.390289 139.205612,359.710175 
	C136.238297,371.327667 144.011810,379.535187 155.930115,376.828369 
	C168.904724,373.881622 181.608032,369.748383 194.448151,366.199432 
	C214.096649,360.768646 233.792618,355.506439 253.401367,349.936523 
	C260.133270,348.024323 267.013977,346.614990 272.423187,341.192352 
	C346.221558,267.210846 420.151703,193.360794 493.991730,119.420792 
	C496.964661,116.443848 499.321716,112.858971 502.044098,109.623329 
	C507.840393,102.734230 510.528259,94.421272 513.000000,86.000000 
z"/>
<path fill="#000000" opacity="1.000000" stroke="none" 
	d="
M513.000000,85.531418 
	C510.528259,94.421272 507.840393,102.734230 502.044098,109.623329 
	C499.321716,112.858971 496.964661,116.443848 493.991730,119.420792 
	C420.151703,193.360794 346.221558,267.210846 272.423187,341.192352 
	C267.013977,346.614990 260.133270,348.024323 253.401367,349.936523 
	C233.792618,355.506439 214.096649,360.768646 194.448151,366.199432 
	C181.608032,369.748383 168.904724,373.881622 155.930115,376.828369 
	C144.011810,379.535187 136.238297,371.327667 139.205612,359.710175 
	C145.161972,336.390289 151.958344,313.284424 158.451416,290.102386 
	C161.911880,277.747559 165.282257,265.361847 169.094101,253.114838 
	C170.105942,249.863876 172.082977,246.558640 174.488205,244.147552 
	C248.641327,169.813950 322.876190,95.561783 397.181671,21.380423 
	C406.494080,12.083542 417.482391,5.018306 430.670715,3.161816 
	C446.632904,0.914861 462.114594,3.461802 475.040039,13.748749 
	C487.143616,23.381590 498.579102,33.999546 506.583221,47.449963 
	C509.464844,52.292301 510.415833,58.283504 512.623901,63.875206 
	C513.000000,71.020950 513.000000,78.041893 513.000000,85.531418 
M335.500000,239.999985 
	C372.328674,203.171371 409.157379,166.342758 445.687866,129.812393 
	C425.724792,109.836113 405.974487,90.072739 386.246704,70.331924 
	C324.631622,131.946548 262.878296,193.699417 201.548141,255.029099 
	C221.352448,274.833649 241.174911,294.656342 261.009308,314.490997 
	C285.503296,289.996918 310.251648,265.248444 335.500000,239.999985 
M413.498596,58.999039 
	C430.621521,76.128967 447.744476,93.258904 465.213593,110.735161 
	C470.743744,104.688301 476.451294,99.524689 480.836853,93.412529 
	C488.371307,82.911827 490.241119,69.095207 480.915222,57.609325 
	C475.100464,50.447731 468.522095,43.849442 461.844360,37.460415 
	C454.521423,30.454117 445.332092,27.336767 435.430359,29.379608 
	C422.446686,32.058292 414.294495,41.953907 405.449158,51.289368 
	C408.192017,53.908386 410.595428,56.203289 413.498596,58.999039 
M209.016586,334.476654 
	C217.399780,332.172821 225.782990,329.868988 234.334229,327.518951 
	C218.674210,311.869537 203.514709,296.720306 188.419128,281.634949 
	C182.671387,302.446594 176.858856,323.492828 170.914001,345.018250 
	C183.686203,341.584839 196.006271,338.272949 209.016586,334.476654 
z"/>
<path fill="#000000" opacity="1.000000" stroke="none" 
	d="
M0.999998,101.468658 
	C2.264505,98.530075 3.771454,96.152702 4.755164,93.575600 
	C12.620235,72.970917 27.707823,60.231113 48.470131,54.168289 
	C54.318787,52.460415 60.724609,52.120800 66.879539,52.090187 
	C103.543236,51.907814 140.208298,51.993301 176.872894,52.006905 
	C182.664612,52.009052 187.405502,54.175007 189.809189,59.646931 
	C191.959351,64.541679 191.924179,69.406540 188.050613,73.770920 
	C184.439072,77.840096 179.708130,78.955460 174.674057,78.964333 
	C137.342926,79.030144 100.011147,78.886108 62.680660,79.052971 
	C46.502430,79.125275 30.348520,92.763435 28.053389,109.259781 
	C27.377144,114.120300 27.044960,119.068695 27.042431,123.977066 
	C26.986868,231.804306 26.878984,339.631805 27.106186,447.458618 
	C27.149548,468.037415 39.217430,480.581604 58.003151,485.920715 
	C59.239006,486.272003 60.655312,485.998535 61.987686,485.998535 
	C182.980865,486.000092 303.974091,486.045807 424.967163,485.936249 
	C438.558594,485.923950 452.198456,476.140930 456.869690,463.100494 
	C458.739685,457.880005 459.827484,452.090302 459.866669,446.549774 
	C460.124939,410.053650 459.987579,373.554840 460.009247,337.056885 
	C460.014313,328.572418 466.328064,321.808472 473.935516,322.000061 
	C480.170074,322.157074 486.953888,328.652679 486.965027,334.917664 
	C487.034332,373.915344 487.422729,412.920166 486.779877,451.907379 
	C486.541962,466.335358 480.828888,479.310760 471.133087,490.595367 
	C461.317322,502.019562 448.931030,508.358856 434.746307,511.946594 
	C433.326263,512.305725 431.773956,512.141968 430.141541,512.610413 
	C306.312439,513.000000 182.624878,513.000000 58.321560,512.606079 
	C55.718128,512.120544 53.642372,512.370789 51.756310,511.884766 
	C31.577065,506.685333 16.103123,495.411774 6.889103,476.384155 
	C4.635434,471.730194 2.947852,466.802063 0.999998,462.000000 
	C1.000000,341.979095 1.000000,221.958206 0.999998,101.468658 
z"/>
<path fill="#FFFFFF" opacity="1.000000" stroke="none" 
	d="
M0.999998,462.468658 
	C2.947852,466.802063 4.635434,471.730194 6.889103,476.384155 
	C16.103123,495.411774 31.577065,506.685333 51.756310,511.884766 
	C53.642372,512.370789 55.718128,512.120544 57.852901,512.606079 
	C39.077293,513.000000 20.154587,513.000000 1.000000,513.000000 
	C1.000000,496.313141 1.000000,479.625244 0.999998,462.468658 
z"/>
<path fill="#FFFFFF" opacity="1.000000" stroke="none" 
	d="
M335.250000,240.249985 
	C310.251648,265.248444 285.503296,289.996918 261.009308,314.490997 
	C241.174911,294.656342 221.352448,274.833649 201.548141,255.029099 
	C262.878296,193.699417 324.631622,131.946548 386.246704,70.331924 
	C405.974487,90.072739 425.724792,109.836113 445.687866,129.812393 
	C409.157379,166.342758 372.328674,203.171371 335.250000,240.249985 
z"/>
<path fill="#FFFFFF" opacity="1.000000" stroke="none" 
	d="
M413.248718,58.748615 
	C410.595428,56.203289 408.192017,53.908386 405.449158,51.289368 
	C414.294495,41.953907 422.446686,32.058292 435.430359,29.379608 
	C445.332092,27.336767 454.521423,30.454117 461.844360,37.460415 
	C468.522095,43.849442 475.100464,50.447731 480.915222,57.609325 
	C490.241119,69.095207 488.371307,82.911827 480.836853,93.412529 
	C476.451294,99.524689 470.743744,104.688301 465.213593,110.735161 
	C447.744476,93.258904 430.621521,76.128967 413.248718,58.748615 
z"/>
<path fill="#FFFFFF" opacity="1.000000" stroke="none" 
	d="
M208.671478,334.718872 
	C196.006271,338.272949 183.686203,341.584839 170.914001,345.018250 
	C176.858856,323.492828 182.671387,302.446594 188.419128,281.634949 
	C203.514709,296.720306 218.674210,311.869537 234.334229,327.518951 
	C225.782990,329.868988 217.399780,332.172821 208.671478,334.718872 
z"/>
</svg>