<svg width="20" height="20" viewBox="0 0 20 20" fill="none" xmlns="http://www.w3.org/2000/svg">
<g id="vuesax/bold/money-send">
<g id="money-send">
<path id="Vector" d="M8.54169 8.35837C8.54169 8.80837 8.66669 8.87504 8.95002 8.97504L9.37502 9.12504V7.70837H9.12502C8.80835 7.70837 8.54169 8.00004 8.54169 8.35837Z" fill="#68EE76"/>
<path id="Vector_2" d="M10.625 12.2917H10.875C11.2 12.2917 11.4583 12 11.4583 11.6417C11.4583 11.1917 11.3333 11.125 11.05 11.025L10.625 10.875V12.2917Z" fill="#68EE76"/>
<path id="Vector_3" d="M16.3167 4.56663L14.6084 6.27496C14.4834 6.39996 14.325 6.45829 14.1667 6.45829C14.0084 6.45829 13.85 6.39996 13.725 6.27496C13.4834 6.03329 13.4834 5.63329 13.725 5.39163L15.4334 3.68329C13.9667 2.43329 12.075 1.66663 10 1.66663C5.40002 1.66663 1.66669 5.39996 1.66669 9.99996C1.66669 14.6 5.40002 18.3333 10 18.3333C14.6 18.3333 18.3334 14.6 18.3334 9.99996C18.3334 7.92496 17.5667 6.03329 16.3167 4.56663ZM11.4584 9.84996C11.9917 10.0416 12.7084 10.425 12.7084 11.65C12.7084 12.6916 11.8834 13.55 10.875 13.55H10.625V13.7583C10.625 14.1 10.3417 14.3833 10 14.3833C9.65835 14.3833 9.37502 14.1 9.37502 13.7583V13.55H9.30835C8.20002 13.55 7.29169 12.6166 7.29169 11.4666C7.29169 11.1166 7.57502 10.8333 7.91669 10.8333C8.25835 10.8333 8.54169 11.1166 8.54169 11.4583C8.54169 11.9166 8.88335 12.2916 9.30835 12.2916H9.37502V10.4416L8.54169 10.15C8.00835 9.95829 7.29169 9.57496 7.29169 8.34996C7.29169 7.30829 8.11669 6.44996 9.12502 6.44996H9.37502V6.24996C9.37502 5.90829 9.65835 5.62496 10 5.62496C10.3417 5.62496 10.625 5.90829 10.625 6.24996V6.45829H10.6917C11.8 6.45829 12.7084 7.39163 12.7084 8.54163C12.7084 8.88329 12.425 9.16663 12.0834 9.16663C11.7417 9.16663 11.4584 8.88329 11.4584 8.54163C11.4584 8.08329 11.1167 7.70829 10.6917 7.70829H10.625V9.55829L11.4584 9.84996Z" fill="#68EE76"/>
<path id="Vector_4" d="M18.9083 1.42496C18.8417 1.27496 18.725 1.14996 18.5667 1.08329C18.4917 1.05829 18.4167 1.04163 18.3333 1.04163H15C14.6583 1.04163 14.375 1.32496 14.375 1.66663C14.375 2.00829 14.6583 2.29163 15 2.29163H16.825L15.4333 3.68329C15.75 3.95829 16.0417 4.24996 16.3167 4.56663L17.7083 3.17496V4.99996C17.7083 5.34163 17.9917 5.62496 18.3333 5.62496C18.675 5.62496 18.9583 5.34163 18.9583 4.99996V1.66663C18.9583 1.58329 18.9417 1.50829 18.9083 1.42496Z" fill="#68EE76"/>
</g>
</g>
</svg>
