<svg width="20" height="20" viewBox="0 0 20 20" fill="none" xmlns="http://www.w3.org/2000/svg">
<g id="vuesax/bold/money-send">
<g id="money-send">
<path id="Vector" d="M8.54163 8.35837C8.54163 8.80837 8.66663 8.87504 8.94996 8.97504L9.37496 9.12504V7.70837H9.12496C8.80829 7.70837 8.54163 8.00004 8.54163 8.35837Z" fill="#E1AE3C"/>
<path id="Vector_2" d="M10.625 12.2917H10.875C11.2 12.2917 11.4583 12 11.4583 11.6417C11.4583 11.1917 11.3333 11.125 11.05 11.025L10.625 10.875V12.2917Z" fill="#E1AE3C"/>
<path id="Vector_3" d="M16.3166 4.56663L14.6083 6.27496C14.4833 6.39996 14.325 6.45829 14.1666 6.45829C14.0083 6.45829 13.85 6.39996 13.725 6.27496C13.4833 6.03329 13.4833 5.63329 13.725 5.39163L15.4333 3.68329C13.9666 2.43329 12.075 1.66663 9.99996 1.66663C5.39996 1.66663 1.66663 5.39996 1.66663 9.99996C1.66663 14.6 5.39996 18.3333 9.99996 18.3333C14.6 18.3333 18.3333 14.6 18.3333 9.99996C18.3333 7.92496 17.5666 6.03329 16.3166 4.56663ZM11.4583 9.84996C11.9916 10.0416 12.7083 10.425 12.7083 11.65C12.7083 12.6916 11.8833 13.55 10.875 13.55H10.625V13.7583C10.625 14.1 10.3416 14.3833 9.99996 14.3833C9.65829 14.3833 9.37496 14.1 9.37496 13.7583V13.55H9.30829C8.19996 13.55 7.29163 12.6166 7.29163 11.4666C7.29163 11.1166 7.57496 10.8333 7.91663 10.8333C8.25829 10.8333 8.54163 11.1166 8.54163 11.4583C8.54163 11.9166 8.88329 12.2916 9.30829 12.2916H9.37496V10.4416L8.54163 10.15C8.00829 9.95829 7.29163 9.57496 7.29163 8.34996C7.29163 7.30829 8.11663 6.44996 9.12496 6.44996H9.37496V6.24996C9.37496 5.90829 9.65829 5.62496 9.99996 5.62496C10.3416 5.62496 10.625 5.90829 10.625 6.24996V6.45829H10.6916C11.8 6.45829 12.7083 7.39163 12.7083 8.54163C12.7083 8.88329 12.425 9.16663 12.0833 9.16663C11.7416 9.16663 11.4583 8.88329 11.4583 8.54163C11.4583 8.08329 11.1166 7.70829 10.6916 7.70829H10.625V9.55829L11.4583 9.84996Z" fill="#E1AE3C"/>
<path id="Vector_4" d="M18.9083 1.42496C18.8417 1.27496 18.725 1.14996 18.5667 1.08329C18.4917 1.05829 18.4167 1.04163 18.3333 1.04163H15C14.6583 1.04163 14.375 1.32496 14.375 1.66663C14.375 2.00829 14.6583 2.29163 15 2.29163H16.825L15.4333 3.68329C15.75 3.95829 16.0417 4.24996 16.3167 4.56663L17.7083 3.17496V4.99996C17.7083 5.34163 17.9917 5.62496 18.3333 5.62496C18.675 5.62496 18.9583 5.34163 18.9583 4.99996V1.66663C18.9583 1.58329 18.9417 1.50829 18.9083 1.42496Z" fill="#E1AE3C"/>
</g>
</g>
</svg>
