<svg width="24" height="24" viewBox="0 0 24 24" fill="none" xmlns="http://www.w3.org/2000/svg">
<g id="vuesax/bold/teacher">
<path id="Vector" d="M16.83 15.64C17.5 15.2 18.38 15.68 18.38 16.48V17.77C18.38 19.04 17.39 20.4 16.2 20.8L13.01 21.86C12.45 22.05 11.54 22.05 10.99 21.86L7.8 20.8C6.6 20.4 5.62 19.04 5.62 17.77V16.47C5.62 15.68 6.5 15.2 7.16 15.63L9.22 16.97C10.01 17.5 11.01 17.76 12.01 17.76C13.01 17.76 14.01 17.5 14.8 16.97L16.83 15.64Z" fill="#8D79F6"/>
<path id="Vector_2" d="M19.98 6.46006L13.99 2.53006C12.91 1.82006 11.13 1.82006 10.05 2.53006L4.03002 6.46006C2.10002 7.71006 2.10002 10.5401 4.03002 11.8001L5.63002 12.8401L10.05 15.7201C11.13 16.4301 12.91 16.4301 13.99 15.7201L18.38 12.8401L19.75 11.9401V15.0001C19.75 15.4101 20.09 15.7501 20.5 15.7501C20.91 15.7501 21.25 15.4101 21.25 15.0001V10.0801C21.65 8.79006 21.24 7.29006 19.98 6.46006Z" fill="#8D79F6"/>
</g>
</svg>
