<svg width="20" height="20" viewBox="0 0 20 20" fill="none" xmlns="http://www.w3.org/2000/svg">
<g id="vuesax/bold/wallet">
<g id="wallet">
<path id="Vector" d="M9.95004 1.84167L7.94171 6.51667H5.93337C5.60004 6.51667 5.27504 6.54167 4.95837 6.60833L5.79171 4.60834L5.82504 4.53333L5.87504 4.4C5.90004 4.34167 5.91671 4.29167 5.94171 4.25C6.90837 2.00833 7.99171 1.30833 9.95004 1.84167Z" fill="#E1AE3C"/>
<path id="Vector_2" d="M15.6083 6.74167L15.5916 6.73334C15.0916 6.59167 14.5833 6.51667 14.0666 6.51667H8.84998L10.725 2.15834L10.75 2.10001C10.8666 2.14167 10.9916 2.20001 11.1166 2.24167L12.9583 3.01667C13.9833 3.44167 14.7 3.88334 15.1416 4.41667C15.2166 4.51667 15.2833 4.60834 15.35 4.71667C15.425 4.83334 15.4833 4.95001 15.5166 5.07501C15.55 5.15001 15.575 5.21667 15.5916 5.29167C15.7166 5.71667 15.725 6.20001 15.6083 6.74167Z" fill="#E1AE3C"/>
<path id="Vector_3" d="M10.4333 14.7167H10.6417C10.8917 14.7167 11.1 14.4917 11.1 14.2167C11.1 13.8667 11 13.8167 10.7833 13.7333L10.4333 13.6083V14.7167Z" fill="#E1AE3C"/>
<path id="Vector_4" d="M15.2417 7.93333C14.8667 7.825 14.475 7.76666 14.0667 7.76666H5.93337C5.3667 7.76666 4.83337 7.875 4.33337 8.09166C2.88337 8.71666 1.8667 10.1583 1.8667 11.8333V13.4583C1.8667 13.6583 1.88337 13.85 1.90837 14.05C2.0917 16.7 3.50837 18.1167 6.15837 18.2917C6.35003 18.3167 6.5417 18.3333 6.75003 18.3333H13.25C16.3334 18.3333 17.9584 16.8667 18.1167 13.95C18.125 13.7917 18.1334 13.625 18.1334 13.4583V11.8333C18.1334 9.99166 16.9084 8.44166 15.2417 7.93333ZM11.0667 12.9167C11.45 13.05 11.9667 13.3333 11.9667 14.2167C11.9667 14.975 11.375 15.5833 10.6417 15.5833H10.4334V15.7667C10.4334 16.0083 10.2417 16.2 10 16.2C9.75837 16.2 9.5667 16.0083 9.5667 15.7667V15.5833H9.4917C8.6917 15.5833 8.03337 14.9083 8.03337 14.075C8.03337 13.8333 8.22503 13.6417 8.4667 13.6417C8.70837 13.6417 8.90003 13.8333 8.90003 14.075C8.90003 14.425 9.1667 14.7167 9.4917 14.7167H9.5667V13.3083L8.93337 13.0833C8.55003 12.95 8.03337 12.6667 8.03337 11.7833C8.03337 11.025 8.62503 10.4167 9.35837 10.4167H9.5667V10.2333C9.5667 9.99166 9.75837 9.8 10 9.8C10.2417 9.8 10.4334 9.99166 10.4334 10.2333V10.4167H10.5084C11.3084 10.4167 11.9667 11.0917 11.9667 11.925C11.9667 12.1667 11.775 12.3583 11.5334 12.3583C11.2917 12.3583 11.1 12.1667 11.1 11.925C11.1 11.575 10.8334 11.2833 10.5084 11.2833H10.4334V12.6917L11.0667 12.9167Z" fill="#E1AE3C"/>
<path id="Vector_5" d="M8.90002 11.7833C8.90002 12.1333 9.00002 12.1833 9.21669 12.2667L9.56669 12.3917V11.2833H9.35836C9.10002 11.2833 8.90002 11.5083 8.90002 11.7833Z" fill="#E1AE3C"/>
</g>
</g>
</svg>
