<svg width="30" height="30" viewBox="0 0 30 30" fill="none" xmlns="http://www.w3.org/2000/svg">
<g id="Done 1" clip-path="url(#clip0_605_14630)">
<g id="Page-1">
<g id="Transaction">
<g id="Group-2">
<path id="Oval" d="M15 30C23.2843 30 30 23.2843 30 15C30 6.71573 23.2843 0 15 0C6.71573 0 0 6.71573 0 15C0 23.2843 6.71573 30 15 30Z" fill="#68EE76"/>
<path id="Path" d="M21.1602 10.5686C20.9124 10.3232 20.5106 10.3232 20.2628 10.5686L12.6597 18.0982L9.73718 15.204C9.48935 14.9585 9.08757 14.9585 8.83969 15.204C8.59185 15.4494 8.59185 15.8473 8.83969 16.0927L12.2109 19.4313C12.4587 19.6767 12.8608 19.6765 13.1084 19.4313L21.1602 11.4574C21.4081 11.212 21.4081 10.8141 21.1602 10.5686Z" fill="white" stroke="white" stroke-width="4.88889"/>
</g>
</g>
</g>
</g>
<defs>
<clipPath id="clip0_605_14630">
<rect width="30" height="30" fill="white"/>
</clipPath>
</defs>
</svg>
