<svg width="100" height="100" viewBox="0 0 100 100" fill="none" xmlns="http://www.w3.org/2000/svg">
<g id="Done 1" clip-path="url(#clip0_608_16238)">
<g id="Page-1">
<g id="Transaction">
<g id="Group-2">
<path id="Oval" d="M50 100C77.6142 100 100 77.6142 100 50C100 22.3858 77.6142 0 50 0C22.3858 0 0 22.3858 0 50C0 77.6142 22.3858 100 50 100Z" fill="#FF4848"/>
</g>
</g>
</g>
<path id="Vector" fill-rule="evenodd" clip-rule="evenodd" d="M30.975 31.0166C31.5994 30.3923 32.4463 30.0416 33.3293 30.0416C34.2123 30.0416 35.0591 30.3923 35.6836 31.0166L49.9792 45.3122L64.2748 31.0166C64.582 30.6986 64.9494 30.4449 65.3557 30.2704C65.762 30.0958 66.1989 30.004 66.6411 30.0001C67.0832 29.9963 67.5217 30.0805 67.931 30.248C68.3402 30.4154 68.712 30.6627 69.0247 30.9753C69.3373 31.288 69.5846 31.6598 69.752 32.069C69.9195 32.4783 70.0037 32.9168 69.9999 33.3589C69.996 33.8011 69.9042 34.238 69.7296 34.6443C69.5551 35.0506 69.3014 35.418 68.9834 35.7252L54.6878 50.0208L68.9834 64.3164C69.59 64.9445 69.9256 65.7856 69.918 66.6587C69.9104 67.5319 69.5602 68.3671 68.9428 68.9845C68.3254 69.6019 67.4902 69.9521 66.6171 69.9597C65.744 69.9673 64.9028 69.6316 64.2748 69.025L49.9792 54.7294L35.6836 69.025C35.0555 69.6316 34.2144 69.9673 33.3413 69.9597C32.4681 69.9521 31.6329 69.6019 31.0155 68.9845C30.3981 68.3671 30.0479 67.5319 30.0403 66.6587C30.0327 65.7856 30.3684 64.9445 30.975 64.3164L45.2706 50.0208L30.975 35.7252C30.3507 35.1007 30 34.2539 30 33.3709C30 32.4879 30.3507 31.6411 30.975 31.0166Z" fill="white"/>
</g>
<defs>
<clipPath id="clip0_608_16238">
<rect width="100" height="100" fill="white"/>
</clipPath>
</defs>
</svg>
