<svg width="48" height="45" viewBox="0 0 48 45" fill="none" xmlns="http://www.w3.org/2000/svg">
<g id="Folder">
<path id="Vector" d="M44.5154 16.0571H0V44.8382H44.5154V16.0571Z" fill="#FFC727"/>
<path id="Vector_2" d="M30.4873 13.076H44.5154V16.0571H29.6807L30.4873 13.076Z" fill="#FFC727"/>
<g id="Group" opacity="0.1">
<path id="Vector_3" d="M44.5154 16.057H0V44.8381H44.5154V16.057Z" fill="black"/>
<path id="Vector_4" d="M30.4873 13.0759H44.5154V16.057H29.6807L30.4873 13.0759Z" fill="black"/>
</g>
<path id="Vector_5" d="M9.82031 0.0806214C10.0512 0.0246129 10.2883 -0.00232209 10.5259 0.000442302C10.7641 -0.00384939 11.0019 0.0231066 11.2331 0.0806214C11.0021 0.136531 10.7651 0.163465 10.5275 0.1608C10.2893 0.164265 10.0517 0.137321 9.82031 0.0806214Z" fill="#263238"/>
<path id="Vector_6" d="M9.405 1.52234C9.6337 1.5882 9.85303 1.68304 10.0577 1.80457C10.2655 1.92112 10.4578 2.06335 10.6301 2.22791C10.1739 2.08789 9.75509 1.84671 9.405 1.52234Z" fill="#263238"/>
<path id="Vector_7" d="M8.32581 2.5614C8.49024 2.73383 8.63246 2.92615 8.74915 3.13388C8.87119 3.33788 8.96658 3.55668 9.03299 3.78493C8.70703 3.43636 8.46513 3.01784 8.32581 2.5614Z" fill="#263238"/>
<path id="Vector_8" d="M6.86978 2.92224C6.97774 3.38751 6.97774 3.87133 6.86978 4.3366C6.81226 4.10539 6.7853 3.86764 6.7896 3.62942C6.78611 3.39124 6.81306 3.15359 6.86978 2.92224Z" fill="#263238"/>
<path id="Vector_9" d="M41.3836 2.01941H12.431V39.184H41.3836V2.01941Z" fill="#EBEBEB"/>
<path id="Vector_10" d="M41.382 39.184L12.431 39.2353H12.3797V39.184L12.3524 2.01937V1.9408H12.431L41.382 1.95844H41.443V2.01937L41.382 39.184ZM41.382 39.184L41.3227 2.01937L41.382 2.0787L12.431 2.09795L12.5096 2.01937L12.4807 39.184L12.431 39.1343L41.382 39.184Z" fill="#DBDBDB"/>
<path id="Vector_11" d="M15.598 9.96185L26.9065 9.93298L38.2149 9.96185L26.9065 9.99071L15.598 9.96185Z" fill="#C7C7C7"/>
<path id="Vector_12" d="M15.598 10.884L26.9065 10.8551L38.2149 10.884L26.9065 10.9128L15.598 10.884Z" fill="#C7C7C7"/>
<path id="Vector_13" d="M15.598 11.8077L26.9065 11.7788L38.2149 11.8077L26.9065 11.8349L15.598 11.8077Z" fill="#C7C7C7"/>
<path id="Vector_14" d="M15.598 12.7298L26.9065 12.7009L38.2149 12.7298L26.9065 12.7587L15.598 12.7298Z" fill="#C7C7C7"/>
<path id="Vector_15" d="M15.598 13.6517L26.9065 13.6228L38.2149 13.6517L26.9065 13.6805L15.598 13.6517Z" fill="#C7C7C7"/>
<path id="Vector_16" d="M15.598 14.5738L26.9065 14.5449L38.2149 14.5738L26.9065 14.6027L15.598 14.5738Z" fill="#C7C7C7"/>
<path id="Vector_17" d="M15.598 15.4959L26.9065 15.467L38.2149 15.4959L26.9065 15.5248L15.598 15.4959Z" fill="#C7C7C7"/>
<path id="Vector_18" d="M15.598 16.418L26.9065 16.3907L38.2149 16.418L26.9065 16.4469L15.598 16.418Z" fill="#C7C7C7"/>
<path id="Vector_19" d="M15.598 17.3415L26.9065 17.3126L38.2149 17.3415L26.9065 17.3687L15.598 17.3415Z" fill="#C7C7C7"/>
<path id="Vector_20" d="M15.598 18.2636L26.9065 18.2347L38.2149 18.2636L26.9065 18.2909L15.598 18.2636Z" fill="#C7C7C7"/>
<path id="Vector_21" d="M15.598 19.1857L26.9065 19.1569L38.2149 19.1857L26.9065 19.2146L15.598 19.1857Z" fill="#C7C7C7"/>
<path id="Vector_22" d="M15.598 20.1077L26.9065 20.0789L38.2149 20.1077L26.9065 20.1366L15.598 20.1077Z" fill="#C7C7C7"/>
<path id="Vector_23" d="M15.598 21.0298L26.9065 21.001L38.2149 21.0298L26.9065 21.0587L15.598 21.0298Z" fill="#C7C7C7"/>
<path id="Vector_24" d="M15.598 21.9518L26.9065 21.9246L38.2149 21.9518L26.9065 21.9807L15.598 21.9518Z" fill="#C7C7C7"/>
<path id="Vector_25" d="M15.598 22.8739L26.9065 22.8467L38.2149 22.8739L26.9065 22.9028L15.598 22.8739Z" fill="#C7C7C7"/>
<path id="Vector_26" d="M19.7048 20.0789H17.989V23.9499H19.7048V20.0789Z" fill="#FFC727"/>
<path id="Vector_27" d="M22.8863 18.015H21.1705V23.9499H22.8863V18.015Z" fill="#FFC727"/>
<path id="Vector_28" d="M26.0678 15.7028H24.352V23.95H26.0678V15.7028Z" fill="#FFC727"/>
<path id="Vector_29" d="M29.2509 14.7101H27.5351V23.9499H29.2509V14.7101Z" fill="#FFC727"/>
<path id="Vector_30" d="M32.4324 12.9414H30.7166V23.95H32.4324V12.9414Z" fill="#FFC727"/>
<path id="Vector_31" d="M35.614 11.1934H33.8981V23.9498H35.614V11.1934Z" fill="#FFC727"/>
<path id="Vector_32" d="M16.2106 9.3158L16.2555 12.9736L16.2859 16.6329C16.3068 19.072 16.3132 21.511 16.318 23.9501L16.2106 23.8442H21.7125L27.2127 23.8571L32.7146 23.8923L38.2149 23.9549L32.7146 24.0174L27.2127 24.0527L21.7125 24.0655H16.2106H16.1047V23.9597C16.1047 21.5207 16.1144 19.0816 16.1352 16.6426L16.1673 12.9832L16.2106 9.3158Z" fill="#C7C7C7"/>
<path id="Vector_33" d="M19.7048 24.7228H17.989V24.8783H19.7048V24.7228Z" fill="#C7C7C7"/>
<path id="Vector_34" d="M22.8863 24.7228H21.1705V24.8783H22.8863V24.7228Z" fill="#C7C7C7"/>
<path id="Vector_35" d="M26.0678 24.7228H24.352V24.8783H26.0678V24.7228Z" fill="#C7C7C7"/>
<path id="Vector_36" d="M29.2509 24.7228H27.5351V24.8783H29.2509V24.7228Z" fill="#C7C7C7"/>
<path id="Vector_37" d="M32.4324 24.7228H30.7166V24.8783H32.4324V24.7228Z" fill="#C7C7C7"/>
<path id="Vector_38" d="M35.614 24.7228H33.8981V24.8783H35.614V24.7228Z" fill="#C7C7C7"/>
<path id="Vector_39" d="M18.183 20.5679C19.021 20.555 19.8575 20.4913 20.6878 20.3771C21.5175 20.2711 22.3412 20.1228 23.1557 19.9329C24.7862 19.566 26.368 19.009 27.8687 18.2732C29.3728 17.5485 30.7602 16.6032 31.985 15.4686L32.2176 15.2585L32.4373 15.0356L32.875 14.5882C33.1444 14.2675 33.4347 13.9692 33.6768 13.626C34.1957 12.9666 34.6652 12.2699 35.0816 11.5414H35.096C34.3381 13.0507 33.3302 14.4208 32.1149 15.5936C31.5089 16.1833 30.8533 16.7198 30.1554 17.1972C29.4613 17.6793 28.7317 18.1082 27.9729 18.4801C24.9202 19.9422 21.5633 20.6568 18.1798 20.5647L18.183 20.5679Z" fill="#263238"/>
<path id="Vector_40" d="M35.5706 12.7441L35.3333 12.8034L35.0414 11.6328L33.8949 12.0096L33.8195 11.7771L35.2146 11.3185L35.5706 12.7441Z" fill="#263238"/>
<path id="Vector_41" d="M15.1137 30.6593L38.6992 30.6593V29.7052L15.1137 29.7052V30.6593Z" fill="#DBDBDB"/>
<path id="Vector_42" d="M15.1153 33.0679H28.393V32.1137H15.1153V33.0679Z" fill="#DBDBDB"/>
<path id="Vector_43" d="M20.2677 7.0802L33.5453 7.0802V6.12607L20.2677 6.12607V7.0802Z" fill="#DBDBDB"/>
<path id="Vector_44" d="M35.8769 37.1955L6.92429 37.1811L6.94353 0.0164795L28.4395 0.0277033L35.8914 7.11233L35.8769 37.1955Z" fill="#FFC727"/>
<path id="Vector_45" opacity="0.6" d="M35.8769 37.1955L6.92429 37.1811L6.94353 0.0164795L28.4395 0.0277033L35.8914 7.11233L35.8769 37.1955Z" fill="white"/>
<path id="Vector_46" d="M28.4395 0.02771L35.8914 7.11233L28.4363 7.10913L28.4395 0.02771Z" fill="#FFC727"/>
<path id="Vector_47" opacity="0.4" d="M28.4395 0.02771L35.8914 7.11233L28.4363 7.10913L28.4395 0.02771Z" fill="white"/>
<path id="Vector_48" d="M9.74816 7.25024H25.8449V6.29611H9.74816V7.25024Z" fill="white"/>
<path id="Vector_49" d="M9.76495 9.61535L25.8617 9.62378L25.8622 8.66965L9.76545 8.66122L9.76495 9.61535Z" fill="white"/>
<path id="Vector_50" d="M9.76138 12.024L25.8581 12.0325L25.8586 11.0783L9.76188 11.0699L9.76138 12.024Z" fill="white"/>
<path id="Vector_51" d="M9.75944 14.4319L33.3449 14.4442L33.3454 13.4901L9.75994 13.4777L9.75944 14.4319Z" fill="white"/>
<path id="Vector_52" d="M9.7591 16.842L33.3446 16.8544L33.3451 15.9002L9.7596 15.8879L9.7591 16.842Z" fill="white"/>
<path id="Vector_53" d="M9.75876 19.2506L33.3442 19.2629L33.3447 18.3088L9.75926 18.2965L9.75876 19.2506Z" fill="white"/>
<path id="Vector_54" d="M9.75681 21.6593L33.3423 21.6716L33.3428 20.7175L9.75731 20.7051L9.75681 21.6593Z" fill="white"/>
<path id="Vector_55" d="M9.75482 24.0679L33.3403 24.0802L33.3408 23.1261L9.75532 23.1137L9.75482 24.0679Z" fill="white"/>
<path id="Vector_56" d="M9.75452 26.478L33.34 26.4904L33.3405 25.5362L9.75502 25.5239L9.75452 26.478Z" fill="white"/>
<path id="Vector_57" d="M9.75419 28.8867L33.3397 28.899L33.3402 27.9449L9.75469 27.9326L9.75419 28.8867Z" fill="white"/>
<path id="Vector_58" d="M9.75221 31.2936L33.3377 31.3059L33.3382 30.3518L9.75271 30.3394L9.75221 31.2936Z" fill="white"/>
<path id="Vector_59" d="M9.75029 33.702L33.3358 33.7144L33.3363 32.7602L9.75078 32.7479L9.75029 33.702Z" fill="white"/>
<path id="Vector_60" d="M0.104248 44.8381H44.6197L47.6825 18.4447H3.16709L0.104248 44.8381Z" fill="#FFC727"/>
<path id="Vector_61" d="M33.9703 15.7108H48L47.6825 18.4449H32.8477L33.9703 15.7108Z" fill="#FFC727"/>
</g>
</svg>
