<svg width="100" height="100" viewBox="0 0 100 100" fill="none" xmlns="http://www.w3.org/2000/svg">
<g id="Done 1" clip-path="url(#clip0_608_16316)">
<g id="Page-1">
<g id="Transaction">
<g id="Group-2">
<path id="Oval" d="M50 100C77.6142 100 100 77.6142 100 50C100 22.3858 77.6142 0 50 0C22.3858 0 0 22.3858 0 50C0 77.6142 22.3858 100 50 100Z" fill="#68EE76"/>
<path id="Path" d="M70.5343 35.2289C69.7082 34.4107 68.3689 34.4107 67.5427 35.2289L42.1991 60.3274L32.4574 50.68C31.6313 49.8619 30.292 49.8619 29.4658 50.68C28.6397 51.4981 28.6397 52.8244 29.4658 53.6426L40.7033 64.7711C41.5291 65.5892 42.8694 65.5886 43.6949 64.7711L70.5343 38.1915C71.3605 37.3734 71.3604 36.047 70.5343 35.2289Z" fill="white" stroke="white" stroke-width="4.88889"/>
</g>
</g>
</g>
</g>
<defs>
<clipPath id="clip0_608_16316">
<rect width="100" height="100" fill="white"/>
</clipPath>
</defs>
</svg>
