<svg width="20" height="20" viewBox="0 0 20 20" fill="none" xmlns="http://www.w3.org/2000/svg">
<path d="M9.99999 11.6667C5.82499 11.6667 2.42499 14.4667 2.42499 17.9167C2.42499 18.15 2.60832 18.3333 2.84165 18.3333H17.1583C17.3917 18.3333 17.575 18.15 17.575 17.9167C17.575 14.4667 14.175 11.6667 9.99999 11.6667Z" fill="#8D79F6"/>
<path d="M9.99998 1.66666C9.01665 1.66666 8.11665 2.00832 7.39998 2.58332C6.44165 3.34166 5.83331 4.51666 5.83331 5.83332C5.83331 6.61666 6.04998 7.34999 6.44165 7.97499C7.15831 9.18332 8.47498 9.99999 9.99998 9.99999C11.05 9.99999 12.0083 9.61666 12.7416 8.95832C13.0666 8.68332 13.35 8.34999 13.5666 7.97499C13.95 7.34999 14.1666 6.61666 14.1666 5.83332C14.1666 3.53332 12.3 1.66666 9.99998 1.66666ZM12.1583 5.38332L9.93331 7.43332C9.78331 7.57499 9.59165 7.64166 9.39998 7.64166C9.19998 7.64166 8.99998 7.56666 8.84998 7.41666L7.82498 6.38332C7.51665 6.07499 7.51665 5.58332 7.82498 5.27499C8.13331 4.96666 8.62498 4.96666 8.93331 5.27499L9.42498 5.76666L11.1 4.22499C11.4166 3.93332 11.9083 3.94999 12.2 4.26666C12.4916 4.59166 12.475 5.09166 12.1583 5.38332Z" fill="#8D79F6"/>
</svg>
