<svg width="20" height="20" viewBox="0 0 20 20" fill="none" xmlns="http://www.w3.org/2000/svg">
<path d="M9.99999 12.5C5.82499 12.5 2.42499 15.3 2.42499 18.75C2.42499 18.9833 2.60832 19.1667 2.84165 19.1667H17.1583C17.3917 19.1667 17.575 18.9833 17.575 18.75C17.575 15.3 14.175 12.5 9.99999 12.5Z" fill="#68EE76"/>
<path d="M13.0916 3.04999C12.3416 2.19999 11.225 1.66666 9.99998 1.66666C8.83331 1.66666 7.76665 2.14166 7.00831 2.92499C6.28331 3.67499 5.83331 4.70832 5.83331 5.83332C5.83331 6.61666 6.04998 7.34999 6.44165 7.97499C6.64998 8.33332 6.91665 8.65832 7.23331 8.92499C7.95831 9.59166 8.92498 9.99999 9.99998 9.99999C11.525 9.99999 12.8416 9.18332 13.5666 7.97499C13.7833 7.61666 13.95 7.21666 14.0416 6.79999C14.125 6.49166 14.1666 6.16666 14.1666 5.83332C14.1666 4.76666 13.7583 3.79166 13.0916 3.04999ZM11.5583 6.59999H10.7833V7.40832C10.7833 7.84166 10.4333 8.19166 9.99998 8.19166C9.56665 8.19166 9.21665 7.84166 9.21665 7.40832V6.59999H8.44165C8.00831 6.59999 7.65831 6.24999 7.65831 5.81666C7.65831 5.38332 8.00831 5.03332 8.44165 5.03332H9.21665V4.29166C9.21665 3.85832 9.56665 3.50832 9.99998 3.50832C10.4333 3.50832 10.7833 3.85832 10.7833 4.29166V5.03332H11.5583C11.9916 5.03332 12.3416 5.38332 12.3416 5.81666C12.3416 6.24999 11.9916 6.59999 11.5583 6.59999Z" fill="#68EE76"/>
</svg>
