<svg width="20" height="20" viewBox="0 0 20 20" fill="none" xmlns="http://www.w3.org/2000/svg">
<g id="X">
<path id="Vector" fill-rule="evenodd" clip-rule="evenodd" d="M4.293 4.29308C4.48053 4.10561 4.73484 4.00029 5 4.00029C5.26516 4.00029 5.51947 4.10561 5.707 4.29308L10 8.58608L14.293 4.29308C14.3852 4.19757 14.4956 4.12139 14.6176 4.06898C14.7396 4.01657 14.8708 3.98898 15.0036 3.98783C15.1364 3.98668 15.2681 4.01198 15.391 4.06226C15.5139 4.11254 15.6255 4.18679 15.7194 4.28069C15.8133 4.37458 15.8875 4.48623 15.9378 4.60913C15.9881 4.73202 16.0134 4.8637 16.0123 4.99648C16.0111 5.12926 15.9835 5.26048 15.9311 5.38249C15.8787 5.50449 15.8025 5.61483 15.707 5.70708L11.414 10.0001L15.707 14.2931C15.8892 14.4817 15.99 14.7343 15.9877 14.9965C15.9854 15.2587 15.8802 15.5095 15.6948 15.6949C15.5094 15.8803 15.2586 15.9855 14.9964 15.9878C14.7342 15.99 14.4816 15.8892 14.293 15.7071L10 11.4141L5.707 15.7071C5.5184 15.8892 5.2658 15.99 5.0036 15.9878C4.7414 15.9855 4.49059 15.8803 4.30518 15.6949C4.11977 15.5095 4.0146 15.2587 4.01233 14.9965C4.01005 14.7343 4.11084 14.4817 4.293 14.2931L8.586 10.0001L4.293 5.70708C4.10553 5.51955 4.00021 5.26525 4.00021 5.00008C4.00021 4.73492 4.10553 4.48061 4.293 4.29308Z" fill="#767676"/>
</g>
</svg>
