<svg width="24" height="24" viewBox="0 0 24 24" fill="none" xmlns="http://www.w3.org/2000/svg">
<g id="vuesax/bold/card-pos">
<g id="card-pos">
<path id="Vector" d="M22 21.25C22 21.66 21.66 22 21.25 22H2.75C2.34 22 2 21.66 2 21.25C2 20.84 2.34 20.5 2.75 20.5H21.25C21.66 20.5 22 20.84 22 21.25Z" fill="white"/>
<path id="Vector_2" d="M15.39 4.52001L4.65 15.26C4.24 15.67 3.58 15.67 3.18 15.26H3.17C1.78 13.86 1.78 11.6 3.17 10.21L10.32 3.06001C11.72 1.66001 13.98 1.66001 15.38 3.06001C15.79 3.45001 15.79 4.12001 15.39 4.52001Z" fill="white"/>
<path id="Vector_3" d="M20.82 8.48995L17.77 5.43995C17.36 5.02995 16.7 5.02995 16.3 5.43995L5.56 16.1799C5.15 16.5799 5.15 17.2399 5.56 17.6499L8.61 20.7099C10.01 22.0999 12.27 22.0999 13.67 20.7099L20.81 13.5599C22.23 12.1599 22.23 9.88995 20.82 8.48995ZM12.76 17.5199L11.55 18.7399C11.3 18.9899 10.89 18.9899 10.63 18.7399C10.38 18.4899 10.38 18.0799 10.63 17.8199L11.85 16.5999C12.09 16.3599 12.51 16.3599 12.76 16.5999C13.01 16.8499 13.01 17.2799 12.76 17.5199ZM16.73 13.5499L14.29 15.9999C14.04 16.2399 13.63 16.2399 13.37 15.9999C13.12 15.7499 13.12 15.3399 13.37 15.0799L15.82 12.6299C16.06 12.3899 16.48 12.3899 16.73 12.6299C16.98 12.8899 16.98 13.2999 16.73 13.5499Z" fill="white"/>
</g>
</g>
</svg>
